<?xml version="1.0" standalone="no"?><!DOCTYPE svg PUBLIC "-//W3C//DTD SVG 1.1//EN" "http://www.w3.org/Graphics/SVG/1.1/DTD/svg11.dtd"><svg t="1652958784593" class="icon" viewBox="0 0 1024 1024" version="1.1" xmlns="http://www.w3.org/2000/svg" p-id="2831" xmlns:xlink="http://www.w3.org/1999/xlink" width="200" height="200"><defs><style type="text/css"></style></defs><path d="M512 256v128l170.667-170.667L512 42.667v128c-188.587 0-341.333 152.746-341.333 341.333 0 66.987 19.626 129.28 52.906 181.76l62.294-62.293C266.667 596.053 256 554.667 256 512c0-141.227 114.773-256 256-256m288.427 74.24l-62.294 62.293C756.907 428.373 768 469.333 768 512c0 141.227-114.773 256-256 256V640L341.333 810.667 512 981.333v-128c188.587 0 341.333-152.746 341.333-341.333 0-66.987-19.626-129.28-52.906-181.76z" fill="" p-id="2832"></path></svg>